<?xml version="1.0" encoding="UTF-8" standalone="no"?>
<svg id="svg4409" xmlns:rdf="http://www.w3.org/1999/02/22-rdf-syntax-ns#" xmlns="http://www.w3.org/2000/svg" height="348.42mm" width="340.11mm" version="1.1" xmlns:cc="http://creativecommons.org/ns#" xmlns:dc="http://purl.org/dc/elements/1.1/" viewBox="0 0 1205.1127 1234.55">
<g id="layer1" transform="translate(1899.7 622.06)">
<g id="g4194" fill-rule="evenodd">
<g clip-rule="evenodd">
<path id="path47" style="image-rendering:optimizeQuality;shape-rendering:geometricPrecision" d="m-1450.4 581.6c4.14-1.62 12.42-7.92 16.29-10.62 12.96-9 34.2-25.02 46.17-34.92 2.61-2.16 4.5-3.87 7.11-5.94l14.58-12.24c6.66-6.03 18.63-15.66 25.02-22.05 2.25-2.25 9.45-7.83 10.89-10.35-32.67-1.26-54.63-1.8-86.85-7.83-4.5-0.81-67.123-31.203-69.553-30.663l36.343 134.7z" class="fil0" fill="#ff0"/>
<path id="path15" style="image-rendering:optimizeQuality;shape-rendering:geometricPrecision" d="m-1198.3-622.06c-0.54 0.09-0.9893 0.17938-1.5293 0.35938-5.22 1.44-16.472 6.7513-21.602 9.3613l-48.238 25.02c-24.21 13.23-47.072 28.53-70.022 43.74-2.34 1.53-4.3185 2.8803-6.4785 4.3203l-24.48 17.279c-16.2 11.34-32.13 23.49-47.52 35.91l-22.951 18.721c-1.98 1.62-12.15 4.2288-15.66 5.2188-5.49 1.53-10.53 3.8709-15.75 5.1309-12.6-8.46-24.57-17.73-37.44-25.74l-39.42-24.391c-19.62-11.88-40.409-23.31-61.199-33.57l-53.191-26.01c-10.71-5.49-15.03 0.90065-17.1 10.891-0.99 4.59-2.0707 9.0006-2.9707 13.141-6.03 27.9-9.4487 56.249-10.889 85.049l-1.0801 14.4c-0.45 4.68-0.2708 11.16-0.6308 15.48-0.81 9.72-0.179 65.7 0.541 78.66l2.6992 44.91c0.9 6.3-0.629 7.2892-3.959 11.699l-9.9902 13.859c-1.89 2.34-6.5705 1.71-13.23 2.25-30.06 2.34-63.09 6.8404-92.16 12.15-18.18 3.33-35.55 6.9296-52.83 10.35-8.82 1.71-17.1 3.7816-25.74 5.8516-13.32 3.24-7.829 12.779-5.039 19.799 5.85 14.49 13.769 28.621 21.689 42.031 2.07 3.51 3.6898 6.2988 5.7598 9.7188 2.7 4.5 16.29 27.63 19.08 29.34 0.81-3.6 2.0709-6.6589 3.9609-9.6289 2.25-3.69 4.3188-4.9505 6.2988-7.5606l-10.17-16.381c-3.51-5.49-6.4805-10.889-9.8105-16.469-3.78-6.48-15.478-28.26-17.908-34.65l8.9082-2.5195c44.28-9.72 103.77-20.521 146.97-23.311l-21.6 38.43c-3.69 7.29-17.009 34.83-18.359 41.4-2.79-0.44997-3.7807-1.4407-6.3906-0.7207l31.41 4.1406c1.17-5.4 6.9294-16.379 9.3594-21.779 9.99-22.05 21.06-39.421 33.66-59.311 8.37-13.32 17.009-23.491 26.279-35.641 2.07-2.79 4.8614-6.119 7.0214-8.459 1.62-1.8 2.0698-2.7005 3.5098-4.2305 1.62-1.71 2.3395-2.3408 3.6895-4.0508l46.98-45.359c5.04-4.41 11.699-9.5397 17.279-13.68 32.49-24.03 50.67-34.74 86.94-51.93 7.74-3.69 7.4715-4.1403 9.2715-2.0703 140.04-0.9 243.36 42.209 326.88 107.55 11.7 9.18 19.08 16.471 29.43 25.381 6.3 5.4 25.112 25.109 30.512 30.869l21.51 25.561c15.03 19.26 31.5 42.841 43.92 64.531 15.21 26.64 45.089 85.499 47.789 115.29 9.18-2.61 17.82-5.2204 27.18-7.6504 4.05-1.08 26.55-5.5802 27.99-6.6602 0-0.99 11.161-17.009 12.961-19.799 10.35-15.84 22.769-36.27 32.219-53.01 1.35-2.52 4.5905-8.7312 6.4805-10.531 8.73 27.54 15.75 52.83 20.43 83.52-0.99 0.81 1.4407 1.3512-1.5293 0.45117 2.88 2.61 16.469 4.6791 25.199 20.789 1.98 3.51 2.9699 7.8308 4.5899 10.801 0-7.56-1.0784-16.11-2.0684-23.4-2.16-15.3-4.3202-29.7-7.7402-44.73-0.9-3.96-1.5297-6.659-2.4297-10.709-0.81-3.87-1.8012-6.7496-2.7012-10.35-4.14-17.01-10.17-33.21-16.02-49.5-3.15-8.64-2.5206-5.2206 3.6894-17.641 4.23-8.55 9.2708-16.74 13.051-25.65l8.3692-17.82c0.7198-1.62 1.4401-2.8784 2.1601-4.3184l18.18-40.771c1.35-3.33 2.5209-5.7598 3.9609-9.0898l3.8692-9.2695c3.06-7.92-2.2491-13.681-9.5391-15.211-31.14-6.3-48.78-7.9198-79.83-11.34l-37.439-1.8887c-3.78 0-9.4509 0.27031-12.961-0.17969-10.44-1.35-6.3902 1.3491-13.41-6.2109-1.17-1.17-2.1601-2.0702-3.3301-3.2402-4.5-4.59-8.6406-8.6406-13.141-13.141l-27.539-24.84c-2.34-1.8-4.4097-3.6001-6.9297-5.5801-2.61-2.07-4.681-3.7798-7.291-5.7598l-22.859-16.469c-2.7-1.8-4.95-3.3307-7.83-5.2207-5.49-3.6-10.349-6.6601-16.109-10.08-11.16-6.75-22.05-12.599-33.93-18.539l-27.092-12.24c-2.43-0.99-6.8389-3.2398-9.6289-3.5098-5.04-21.78-11.97-43.381-18-64.801-8.28-29.61-17.28-59.671-23.85-90.541-1.35-6.03-2.6115-14.759-9.2715-16.199zm-238.68 177.75c0.046 0.006 0.091 0.0116 0.1367 0.0176-0.011 0.0204-0.04 0.0545-0.047 0.0723zm334.17 146.7 0.055 0.0566c-0.074 0.012-0.1613 0.0231-0.2344 0.0352zm-691.38 246.15c0 7.11-1.7988 14.581-1.7988 21.781 0 7.02-1.2599 15.57-1.1699 22.68 0.09 7.92 0 15.93 0 23.85 0.09 5.94-1.0803 4.6805-4.3203 7.5605-2.43 2.07-3.8707 4.1391-6.3907 6.1191l-45.449 43.92c-1.26 1.44-1.5307 2.0696-2.9707 3.5996-3.51 3.6-9.9905 7.7414-7.5605 14.941 1.35 3.96 8.6408 7.9188 13.051 10.799l62.82 33.75c13.86 7.02 7.6497-1.7994 18.18 30.061 7.65 23.13 17.91 45.359 29.07 66.869 2.25 4.32 0.8991 4.0508-0.6309 8.5508-6.75 19.26-15.749 44.281-21.059 63.541l-5.4902 18.449c-1.26 10.17 7.4701 10.8 12.33 11.43 20.88 2.7 47.159 2.7911 69.299 1.6211 4.05-0.18 7.6513 0.2687 11.611-0.3613 8.1-1.26 8.1898 1.9796 14.76 9.1796 33.496 29.093 62.872 51.148 94.184 70.91 17.068 9.259 64.74 32.566 64.74 32.566l49.066 154.46s5.85-3.51 9-5.58c26.01-17.46 43.47-29.97 67.68-49.68 6.75-5.49 30.419-24.931 35.459-30.061l23.58-21.15c1.71-1.53 1.7107-2.5205 4.0507-3.0605l40.59-3.5098c3.42-0.45 24.659-3.5099 25.289-3.4199l26.102 18c13.5 9 26.368 17.55 40.318 25.83l61.381 34.56c6.39 3.33 12.78 6.3888 19.44 9.7188 16.29 8.19 75.871 36.9 81.631 36 8.64-1.35 8.9093-11.16 10.529-19.35 6.3-31.32 9.9903-69.659 9.9903-107.37 0-4.59-0.27062-9.6311 0.35938-13.951l-4.5-98.639c2.88-0.81 4.4103-3.7804 6.5703-5.4004l38.34-39.15 13.771-16.56c2.52-3.24 2.4302-3.6886 6.6602-5.3086l50.939-21.781c2.7-1.35 5.2196-2.3393 8.0996-3.7793s5.3095-2.3393 8.1895-3.7793c13.23-6.66 26.641-12.51 40.141-20.07 7.92-4.41 18.9-9.4502 27.27-14.49 10.08-6.03 23.58-12.781 35.1-19.711l29.881-17.818c9.45-6.21 19.979-12.151 29.699-18.631 4.68-3.15 10.981-5.4004 11.791-12.15v-0.26953-2.6094l-0.1797-0.18164c-0.54-4.59-3.6915-6.7498-5.8515-9.0898-1.35-1.44-1.5288-2.1596-2.9688-3.5996-4.05-4.14-7.9207-7.7389-11.971-11.879l-22.049-20.25c-1.35-1.35-1.8902-1.5312-3.2402-2.7012-19.08-17.01-33.75-27.54-53.82-42.66l-43.201-29.52 1.8008-25.65c0-3.96 0.4508-5.8502 0.6308-8.9102 0.63-12.42-0.6308-24.929-0.6308-36.719-1.62 2.07-3.2399 8.1888-13.59 6.2988-10.71-1.98-6.839-5.5798-11.789-8.0098 2.52 6.66 0.7196 47.97 0.1796 57.6-2.34-0.36-21.151-12.33-25.021-14.67l-50.76-29.07c-2.52-1.44-11.699-5.7584-12.689-7.6484-1.35-2.43-3.7804-13.5-3.1504-15.75-4.68 0.9-32.309 7.7388-34.199 9.7188 1.62 0.36 1.3491 0.72063 2.7891 1.8906 1.35 1.08 1.9801 1.0808 3.3301 1.8008 0.9 6.03-0.17922 3.9592 1.8008 13.949 6.03 29.88 11.52 65.79 12.15 96.48 2.25 105.03-31.321 203.13-98.191 271.98l-11.879 11.43c-1.44 1.53-2.6106 2.1596-4.1406 3.5996-14.4 13.32-36.629 28.8-54.449 38.52-74.016 36.58-146.36 48.369-228.87 47.25-16.65-1.26-36.63-5.2205-53.1-8.7305-51.488-14.878-132.86-59.174-139.49-63.838-8.276-5.451-59.698-38.849-96.4-76.201-4.32-4.32-19.8-23.671-23.67-28.711-55.53-71.82-88.468-161.91-94.318-254.97-0.54-9.27-1.9804-63.181 1.3496-67.861-0.45-0.45-0.3601-0.26844-1.0801-0.89844l-17.191-12.061c-1.71-1.26-3.7798-3.5108-5.7598-4.0508zm-1.08 96.031c0.9 12.87 2.6098 25.92 4.5898 38.52 1.89 12.24 5.0418 23.941 6.8418 35.641-9.09-2.97-50.94-25.56-56.25-30.42v-0.0918c0.9-2.7 3.3283-3.9596 5.4883-5.8496 4.32-3.87 7.5608-8.1 10.801-11.25 1.98-1.89 3.5102-3.3288 5.4902-5.2188zm68.4 214.2c11.88 17.73 17.46 28.26 31.68 46.35l11.07 14.131c-13.32 2.16-47.88 0.7193-62.1-0.7207-0.36-3.42 17.1-56.61 19.35-59.76zm249.15 201.29c19.665 7.6169 40.226 14.026 60.447 17.59 32.22 6.03 54.182 6.5701 86.852 7.8301-1.44 2.52-8.6406 8.0996-10.891 10.35-6.39 6.39-18.36 16.019-25.02 22.049l-14.58 12.24c-2.61 2.07-4.5013 3.7814-7.1113 5.9414-11.97 9.9-33.21 25.92-46.17 34.92-1.8215 1.2708-4.6377 3.3434-7.5215 5.3457z" fill="#9b9b00"/>
<path id="path11" style="image-rendering:optimizeQuality;shape-rendering:geometricPrecision" d="m-1770.2-34.446c-3.33 4.68-1.98 58.59-1.35 67.86 5.76 93.06 38.79 183.15 94.32 254.97 3.87 5.04 19.35 24.39 23.67 28.71 4.68 4.68 38.97 41.04 44.01 42.3 89.967 59.577 67.453 43.545 167.31 91.35 8.28 1.89 16.11 4.5 24.66 6.39 16.47 3.51 36.45 7.47 53.1 8.73l26.1 1.26c4.41-0.27 1.71-0.45 3.33-1.08 2.97-1.26 23.85-1.08 29.07-1.35 9.45-0.45 19.17-1.35 28.53-2.43 3.24-0.36 11.07-1.08 13.68-1.98 5.76-2.07 6.03-1.89 12.96-2.52 35.37-3.15 86.94-23.76 115.2-39.15 17.82-9.72 40.05-25.2 54.45-38.52 1.53-1.44 2.7-2.07 4.14-3.6l11.88-11.43c66.87-68.85 100.44-166.95 98.19-271.98-0.63-30.69-6.12-66.6-12.15-96.48-1.98-9.99-0.9-7.92-1.8-13.95-1.35-0.72-1.98-0.72-3.33-1.8-1.44-1.17-1.17-1.53-2.79-1.89-6.48 0.09-40.14 12.06-48.33 14.94-29.97 10.35-84.33 31.41-112.23 45.72l-20.97 9.99c-2.25 27.63-18.09 44.01-32.22 55.98-33.66 28.71-90.27 42.66-136.44 37.53-46.08-5.13-101.25-34.65-135.36-63.09l-17.82-15.57c-5.76-6.57-13.86-12.96-21.51-22.59-1.8-2.25-3.15-3.6-4.86-5.85-19.17-24.21-42.93-62.73-25.92-94.23 3.06-5.58 5.67-7.47 8.91-10.8 1.35-1.35 0.45-0.18 1.17-1.53-7.92-2.7-21.87-6.93-31.41-3.69-1.89 22.95-18.09 37.98-30.78 46.71-34.11 23.67-82.8 31.23-123.48 17.55-31.5-10.53-44.64-21.78-52.11-24.57z" class="fil0" fill="#ff0"/>
<path id="path13" style="image-rendering:optimizeQuality;shape-rendering:geometricPrecision" d="m-1736.8-174.22c16.56 3.78 28.8 5.13 47.79 10.17 28.71 7.56 59.76 17.37 84.6 32.76 9.72 6.03 26.1 17.91 31.05 27.72 24.21 1.08 44.82 6.21 64.53 17.37 6.75 3.78 3.87 2.79 12.06 1.17 64.98-12.42 189.99 17.73 246.6 44.64 16.29 7.74 29.07 14.85 41.94 24.21 23.94 17.46 29.25 31.5 32.04 33.93 9.18-2.25 79.65-31.32 90.54-35.64 29.61-11.7 61.65-24.39 93.15-33.57-2.7-29.79-32.58-88.65-47.79-115.29-12.42-21.69-28.89-45.27-43.92-64.53l-21.51-25.56c-5.4-5.76-24.21-25.47-30.51-30.87-10.35-8.91-17.73-16.2-29.43-25.38-83.52-65.34-186.84-108.45-326.88-107.55-1.8-2.07-1.53-1.62-9.27 2.07-36.27 17.19-54.45 27.9-86.94 51.93-5.58 4.14-12.24 9.27-17.28 13.68l-46.98 45.36c-1.35 1.71-2.07 2.34-3.69 4.05-1.44 1.53-1.89 2.43-3.51 4.23-2.16 2.34-4.95 5.67-7.02 8.46-9.27 12.15-17.91 22.32-26.28 35.64-12.6 19.89-23.67 37.26-33.66 59.31-2.43 5.4-8.19 16.38-9.36 21.78z" class="fil0" fill="#ff0"/>
<path id="path21" style="image-rendering:optimizeQuality;shape-rendering:geometricPrecision" d="m-1464.7-63.696c60.3-4.86 162.72 23.13 210.15 46.35 23.76 11.61 62.64 35.73 58.05 70.92-3.96 30.06-38.52 51.93-66.42 62.28-36.63 13.59-72.36 16.92-109.44 4.86-30.15-9.81-67.86-33.3-86.76-50.31-1.8-1.62-2.61-1.98-4.5-3.87-1.53-1.53-2.97-2.25-4.5-3.87-4.32-4.41-16.2-15.3-19.89-20.07-5.49-7.02-8.46-10.08-14.13-18.09-4.5-6.3-8.19-12.87-11.7-20.43-18.81-40.5 5.04-64.26 49.14-67.86zm-324.9-97.74c46.17-4.32 125.91 17.46 161.73 35.28 18.18 9 47.16 27.18 44.37 54-4.41 42.12-85.41 70.65-134.28 53.19-40.41-14.49-90.99-49.77-108.63-89.19-14.22-31.77 4.32-50.13 36.81-53.19zm-50.22-2.79c-1.98 2.61-4.05 3.87-6.3 7.56-1.89 2.97-3.15 6.03-3.96 9.63-4.05 6.66 1.35 25.2 3.96 31.68 4.59 11.34 17.73 31.05 27.09 40.32l24.93 23.67c1.98 0.54 4.05 2.88 5.76 4.05l17.19 12.06c0.72 0.54 0.54 0.45 1.08 0.9 7.38 2.79 20.52 14.04 52.11 24.57 40.68 13.59 89.46 6.12 123.48-17.55 12.69-8.82 28.89-23.76 30.78-46.71 9.45-3.24 23.49 0.99 31.41 3.69-0.81 1.26 0.09 0.18-1.17 1.53-3.24 3.33-5.85 5.22-8.91 10.8-17.1 31.5 6.66 70.02 25.92 94.23 1.8 2.25 3.06 3.6 4.86 5.85 7.65 9.63 15.84 16.02 21.51 22.59l17.82 15.57c34.11 28.35 89.28 57.96 135.36 63.09 46.17 5.13 102.78-8.82 136.44-37.53 14.13-12.06 29.97-28.44 32.22-55.98l20.97-9.99c27.9-14.31 82.17-35.28 112.23-45.72 8.19-2.79 41.85-14.76 48.33-14.94 1.89-1.98 29.52-8.82 34.2-9.72 7.38-2.88 40.23-9.36 50.76-11.97 20.43-4.95 39.69 18.27 40.59 21.6 4.95 2.43 1.08 6.03 11.79 8.01 10.35 1.89 11.97-4.23 13.59-6.3 0.54-2.88 0.9-3.51 0.27-7.02-0.45-2.43-0.72-5.31-1.44-7.02-1.62-2.97-2.61-7.29-4.59-10.8-8.73-16.11-22.32-18.18-25.2-20.79-3.96-0.27-10.89-2.7-16.2-3.33-12.15-1.53-25.38-0.99-37.44 0.54-4.95 0.63-12.51 2.43-16.92 2.16-1.44 1.08-23.94 5.58-27.99 6.66-9.36 2.43-18 5.04-27.18 7.65-31.5 9.18-63.45 21.87-93.15 33.57-10.89 4.32-81.36 33.39-90.54 35.64-2.79-2.43-8.1-16.47-32.04-33.93-12.87-9.36-25.65-16.47-41.94-24.21-56.61-26.91-181.62-57.06-246.6-44.64-8.28 1.62-5.4 2.61-12.06-1.17-19.71-11.16-40.23-16.2-64.53-17.37-5.04-9.81-21.33-21.69-31.05-27.72-24.84-15.39-55.89-25.2-84.6-32.76-18.99-5.04-31.32-6.39-47.79-10.17l-31.41-4.14c-5.22 0.72-15.66-0.36-21.78-0.18-6.57 0.18-13.14 0.63-19.44 1.71-12.24 2.07-23.04 6.39-30.42 12.51z" class="fil3" fill="#934646"/>
<path id="path23" style="image-rendering:optimizeQuality;shape-rendering:geometricPrecision" d="m-1300.7 31.794c-2.88 2.52-6.93 4.41-9.9 6.57-3.15 2.34-5.76 4.41-9.18 6.93-6.3 4.68-11.88 9.27-18 14.13-3.87 3.06-29.34 24.75-31.5 24.93-1.89 0.09-3.51-1.62-3.06-3.51 0.54-2.07 14.94-13.32 17.46-15.3l35.82-28.53c4.5-3.42 18.81-15.93 18.36-5.31zm-9.27-39.6c1.98 5.31-2.61 6.66-10.08 12.33l-28.17 20.16c-19.53 14.22-43.83 29.97-64.35 44.1-1.89 1.35-5.22 4.59-7.83 2.88-3.96-2.7 0.99-5.67 3.06-7.11 2.61-1.71 4.77-3.06 7.2-4.77l42.75-29.34c9.45-6.39 19.17-13.05 28.53-19.8 4.77-3.42 9.72-6.84 14.22-10.17 6.66-4.95 10.26-9.45 14.76-8.28zm-116.01 46.17c-1.8-4.77 0.18-4.68 7.29-9.09l31.77-20.16c7.11-4.59 13.95-8.73 21.06-13.5 3.42-2.34 7.11-4.41 10.53-6.75 2.25-1.62 8.1-6.75 10.71-4.41 3.78 3.42-4.14 7.38-6.3 8.73l-31.5 20.34c-6.93 4.68-14.13 8.91-21.15 13.41-3.87 2.43-6.84 4.41-10.62 6.66-3.51 2.16-7.29 6.12-11.7 4.68zm-87.84-56.79c1.62 24.21 29.25 59.04 48.24 74.88 1.62 1.35 2.34 2.34 3.96 3.78 18.81 16.65 46.98 35.82 69.3 45.72 34.83 15.39 61.2 21.15 102.87 11.34 34.65-8.1 62.91-23.76 78.39-44.46 10.17-13.68 11.79-31.32 2.16-46.62-20.79-33.21-81.54-53.91-119.97-64.26-35.73-9.63-189.54-49.68-184.95 19.53z" class="fil3" fill="#464545"/>
<g fill="#ff0">
<path id="path27" style="image-rendering:optimizeQuality;shape-rendering:geometricPrecision" d="m-978.18 298.82c5.22-1.17 12.96-4.41 18.18-6.39 5.85-2.25 11.61-4.5 17.19-6.66 27.72-10.44 72.99-31.77 98.28-44.82 34.74-17.82 73.35-39.69 106.47-60.39 4.77-2.97 10.53-7.11 14.94-9.36-2.61-5.76-44.46-41.13-51.66-46.89-36.72-29.61-75.69-55.44-116.82-80.46-13.41-8.1-32.67-19.62-46.71-27.18l-15.66-8.55c-0.36 4.77 4.32 28.53 5.22 35.73 1.71 12.78 2.97 25.56 3.96 38.43 5.13 67.86-1.53 137.7-26.91 200.79-1.98 4.95-4.95 10.62-6.48 15.75z" class="fil0"/>
<path id="path29" style="image-rendering:optimizeQuality;shape-rendering:geometricPrecision" d="m-1436.9-444.22c30.24 3.96 59.22 7.02 89.01 12.33 28.08 5.04 55.35 12.96 80.19 21.78 38.52 13.59 78.12 37.71 107.91 63.72 4.41 3.87 14.22 13.5 17.46 15.48-1.62-45.72-15.39-95.85-26.91-137.7-5.94-21.42-12.33-42.48-18-63.63-2.52-9.09-16.83-60.21-16.56-65.52-13.59 2.7-79.83 41.4-94.32 50.94-32.31 21.24-54.45 35.73-85.41 59.4-6.48 4.95-52.2 40.5-53.28 43.29z" class="fil0"/>
<path id="path31" style="image-rendering:optimizeQuality;shape-rendering:geometricPrecision" d="m-1103-297.52 39.6 40.68c1.8 2.25 3.69 4.05 5.67 6.3l20.7 25.74c13.05 17.19 24.84 38.88 34.02 58.95 4.86 10.62 8.82 22.05 13.77 32.76 8.55 18.63 16.65 38.79 23.13 58.5 0.9 2.88 1.62 6.75 3.42 8.64l17.46-26.1c23.58-35.55 44.64-72.9 64.17-110.97 9.27-18.09 20.16-40.41 28.44-59.13 2.25-5.13 4.5-10.17 6.75-15.3 1.89-4.05 5.49-11.43 6.57-15.57-5.76-3.42-51.66-7.92-61.65-8.73-22.5-1.8-45.18-2.7-67.86-2.79-24.39-0.09-108.54 2.88-134.37 7.11z" class="fil0"/>
<path id="path33" style="image-rendering:optimizeQuality;shape-rendering:geometricPrecision" d="m-1232.6 474.05c1.08 3.24 45.45 31.68 47.25 32.76 16.47 10.08 33.3 20.61 50.94 30.06 17.46 9.36 34.92 18.9 53.37 27.72l41.49 19.26c3.33 1.44 11.25 5.4 14.22 5.94 2.7-4.95 6.93-45.45 7.74-54.09 5.13-58.05 2.07-114.48-2.7-172.44-0.27-2.88 0.09-4.86-1.53-6.57-1.26 2.52-7.47 8.64-9.36 10.98-3.24 3.87-6.39 6.75-9.9 10.35l-21.15 19.89c-3.15 3.06-7.29 6.3-11.07 9.18-3.96 3.06-7.74 5.85-11.88 9-7.83 5.85-16.02 10.8-24.84 16.2-32.76 20.16-77.58 35.73-122.4 41.67z" class="fil0"/>
</g>
<path id="path35" style="image-rendering:optimizeQuality;shape-rendering:geometricPrecision" d="m-1724.5-48.036c-1.08-4.59 2.25-5.85 4.86-8.01 2.7-2.25 4.68-3.78 7.2-5.94l29.25-23.22c2.16-1.62 13.23-11.43 16.11-7.74 3.15 4.05-2.97 5.67-5.31 7.29l-43.92 34.74c-2.79 2.25-4.05 4.77-8.19 2.88zm47.34-74.16c2.25-0.99 4.86 1.44 3.42 4.23-0.54 0.99-3.78 3.42-5.13 4.41-11.79 9-33.39 24.03-46.08 32.58l-23.4 15.93c-1.44 0.99-10.62 7.38-11.52 7.65-3.06 0.99-5.58-1.8-3.78-4.5l17.37-11.97c7.83-5.13 15.57-10.53 23.4-15.93l45.81-32.49zm-28.26-6.12c3.42-1.8 7.47 2.34 2.16 5.85l-51.57 33.03c-2.07 1.35-6.21 4.32-8.46 5.31-4.14 1.98-7.56-2.88-2.25-5.85 2.88-1.71 6.03-3.6 8.82-5.49l51.3-32.85zm-78.66-27.54c-31.23 1.62-50.67 14.85-35.82 46.98 12.06 26.19 46.17 54.63 70.83 68.58 36.63 20.79 68.94 27.36 110.34 12.15 57.42-21.06 71.01-63 5.85-93.78-35.19-16.56-106.74-36.27-151.2-34.02z" class="fil3" fill="#464545"/>
<g fill="#ff0">
<path id="path37" style="image-rendering:optimizeQuality;shape-rendering:geometricPrecision" d="m-1675.9-318.94c3.87-4.86 24.48-25.92 28.44-29.52 1.89-1.71 2.79-2.88 4.68-4.86l26.19-22.68c28.17-22.86 61.74-44.82 95.49-60.57 7.92-3.69 18.99-9.45 27.27-12.06-2.16-2.52-15.66-11.25-19.53-13.77-20.61-13.5-40.41-25.65-62.19-37.98-12.96-7.38-78.75-42.75-88.74-45.45-3.24 5.67-8.1 42.66-9.18 51.84-5.67 46.53-6.12 98.46-4.14 145.53 0.36 8.28 0.27 21.87 1.71 29.61z" class="fil0"/>
<path id="path43" style="image-rendering:optimizeQuality;shape-rendering:geometricPrecision" d="m-1839.8-164.23c7.38-6.03 18.18-10.35 30.42-12.51 6.3-1.08 12.87-1.53 19.44-1.71 6.12-0.18 16.65 0.9 21.78 0.18 2.61-0.72 3.6 0.27 6.39 0.72 1.35-6.57 14.67-34.11 18.36-41.4l21.6-38.43c-43.2 2.79-102.69 13.59-146.97 23.31l-8.91 2.52c2.43 6.39 14.13 28.17 17.91 34.65 3.33 5.58 6.3 10.98 9.81 16.47l10.17 16.38z" class="fil0"/>
<path id="path45" style="image-rendering:optimizeQuality;shape-rendering:geometricPrecision" d="m-1121.9-316.87c9.63-0.36 20.79-1.98 30.51-2.88 30.96-2.79 63.99-4.95 94.95-5.49-4.77-6.66-9.72-9.18-14.85-14.76-3.96-4.23-27.99-23.58-31.86-26.55-21.78-16.65-46.98-32.4-72-44.82-5.22-2.61-15.48-8.19-20.88-9.45 1.26 7.92 3.6 16.47 5.22 24.48 1.62 8.19 3.15 16.38 4.41 24.84 2.79 18.18 4.32 35.91 4.41 54.63z" class="fil0"/>
</g>
<path id="path49" style="image-rendering:optimizeQuality;shape-rendering:geometricPrecision" d="m-1513.9-18.426c-4.5-69.21 149.31-29.07 184.95-19.53 38.43 10.35 99.18 31.05 119.97 64.26 9.63 15.3 8.01 33.03-2.16 46.62-15.39 20.7-43.74 36.36-78.39 44.46-41.76 9.72-68.13 4.05-102.87-11.34-22.32-9.9-50.49-29.07-69.3-45.72-1.62-1.44-2.43-2.43-3.96-3.78-18.99-15.93-46.62-50.67-48.24-74.88zm49.14-45.36c-44.1 3.51-67.95 27.36-49.14 67.86 3.51 7.56 7.2 14.13 11.7 20.43 5.67 8.01 8.64 11.07 14.13 18.09 3.69 4.68 15.57 15.66 19.89 20.07 1.53 1.53 2.97 2.34 4.5 3.87 1.89 1.89 2.7 2.25 4.5 3.87 18.9 17.01 56.61 40.5 86.76 50.31 37.08 12.06 72.81 8.82 109.44-4.86 27.81-10.35 62.46-32.13 66.42-62.28 4.59-35.19-34.29-59.31-58.05-70.92-47.34-23.22-149.76-51.21-210.15-46.35z" class="fil4" fill="#bdc3b8"/>
<path id="path51" style="image-rendering:optimizeQuality;shape-rendering:geometricPrecision" d="m-952.62-30.756c-0.63 2.25 1.8 13.32 3.15 15.75 0.99 1.89 10.17 6.21 12.69 7.65l50.76 29.07c3.87 2.34 22.68 14.31 25.02 14.67 0.54-9.63 2.34-50.94-0.18-57.6-0.9-3.33-20.25-26.55-40.59-21.6-10.62 2.61-43.47 9.09-50.76 11.97z" class="fil0" fill="#ff0"/>
<path id="path55" style="image-rendering:optimizeQuality;shape-rendering:geometricPrecision" d="m-1784.1-155.86c44.46-2.34 116.01 17.37 151.2 34.02 65.16 30.78 51.57 72.63-5.85 93.78-41.4 15.21-73.71 8.64-110.34-12.15-24.66-14.04-58.77-42.39-70.83-68.58-14.85-32.13 4.59-45.36 35.82-46.98zm-5.49-5.67c-32.49 2.97-51.03 21.42-36.81 53.19 17.64 39.42 68.22 74.7 108.63 89.19 48.87 17.55 129.78-10.98 134.28-53.19 2.79-26.82-26.19-45-44.37-54-35.82-17.73-115.56-39.51-161.73-35.28z" class="fil4" fill="#bdc3b8"/>
<g fill="#ff0">
<path id="path57" style="image-rendering:optimizeQuality;shape-rendering:geometricPrecision" d="m-937.41-65.766c4.41 0.27 12.06-1.53 16.92-2.16 12.06-1.44 25.38-2.07 37.44-0.54 5.31 0.63 12.24 3.06 16.2 3.33 2.97 0.9 0.54 0.36 1.53-0.45-4.68-30.69-11.7-55.98-20.43-83.52-1.89 1.8-5.13 8.01-6.48 10.53-9.45 16.74-21.87 37.17-32.22 53.01-1.8 2.79-12.96 18.81-12.96 19.8z" class="fil0"/>
<path id="path67" style="image-rendering:optimizeQuality;shape-rendering:geometricPrecision" d="m-1840.1 88.224c5.4 4.86 47.25 27.54 56.25 30.42-1.89-11.7-4.95-23.4-6.84-35.64-1.98-12.6-3.69-25.65-4.59-38.52l-23.04 21.33c-1.98 1.89-3.51 3.33-5.49 5.22-3.24 3.15-6.48 7.38-10.8 11.25-2.16 1.98-4.59 3.24-5.49 5.85z" class="fil0"/>
<path id="path69" style="image-rendering:optimizeQuality;shape-rendering:geometricPrecision" d="m-1746.2 318.53c14.22 1.44 48.78 2.97 62.1 0.72l-11.07-14.13c-14.13-18.09-19.8-28.62-31.68-46.35-2.25 3.15-19.71 56.34-19.35 59.76z" class="fil0"/>
</g>
<g fill="#bdc3b8">
<path id="path73" style="image-rendering:optimizeQuality;shape-rendering:geometricPrecision" d="m-1310-7.8055c-4.5-1.26-8.1 3.24-14.76 8.28-4.5 3.42-9.45 6.75-14.22 10.17-9.27 6.75-18.99 13.41-28.53 19.8l-42.75 29.34c-2.43 1.71-4.59 3.06-7.2 4.77-1.98 1.35-7.02 4.32-3.06 7.11 2.61 1.8 5.94-1.53 7.83-2.88 20.52-14.13 44.82-29.88 64.35-44.1l28.17-20.16c7.47-5.67 12.06-7.02 10.08-12.33z" class="fil4"/>
<path id="path75" style="image-rendering:optimizeQuality;shape-rendering:geometricPrecision" d="m-1677.2-122.2-45.81 32.49c-7.74 5.4-15.48 10.8-23.4 15.93l-17.37 11.97c-1.8 2.7 0.72 5.49 3.78 4.5 0.99-0.36 10.08-6.66 11.52-7.65l23.4-15.93c12.78-8.55 34.29-23.49 46.08-32.58 1.35-0.99 4.59-3.51 5.13-4.41 1.44-2.79-1.17-5.22-3.42-4.23z" class="fil4"/>
<path id="path77" style="image-rendering:optimizeQuality;shape-rendering:geometricPrecision" d="m-1426 38.364c4.41 1.35 8.19-2.61 11.7-4.68 3.78-2.34 6.75-4.23 10.62-6.66 7.11-4.5 14.22-8.73 21.15-13.41l31.5-20.34c2.16-1.44 10.08-5.31 6.3-8.73-2.61-2.43-8.46 2.79-10.71 4.41-3.42 2.43-7.11 4.5-10.53 6.75-7.11 4.77-13.95 8.91-21.06 13.5l-31.77 20.16c-7.02 4.41-9 4.41-7.29 9.09z" class="fil4"/>
<path id="path79" style="image-rendering:optimizeQuality;shape-rendering:geometricPrecision" d="m-1300.7 31.794c0.45-10.71-13.77 1.8-18.36 5.31l-35.82 28.53c-2.52 1.98-17.01 13.23-17.46 15.3-0.45 1.98 1.17 3.6 3.06 3.51 2.25-0.09 27.72-21.78 31.5-24.93 6.12-4.86 11.79-9.54 18-14.13 3.33-2.52 5.94-4.59 9.18-6.93 2.97-2.16 7.02-4.05 9.9-6.57z" class="fil4"/>
<path id="path81" style="image-rendering:optimizeQuality;shape-rendering:geometricPrecision" d="m-1705.5-128.23-51.3 32.85c-2.88 1.89-5.94 3.78-8.82 5.49-5.22 3.06-1.89 7.83 2.25 5.85 2.25-1.08 6.3-3.96 8.46-5.31l51.57-33.03c5.31-3.51 1.26-7.65-2.16-5.85z" class="fil4"/>
<path id="path83" style="image-rendering:optimizeQuality;shape-rendering:geometricPrecision" d="m-1724.5-48.036c4.14 1.89 5.4-0.63 8.19-2.88l43.92-34.74c2.34-1.62 8.46-3.33 5.31-7.29-2.88-3.69-13.95 6.21-16.11 7.74l-29.25 23.22c-2.52 2.16-4.41 3.69-7.2 5.94-2.52 2.16-5.94 3.42-4.86 8.01z" class="fil4"/>
</g>
<path id="path89" style="image-rendering:optimizeQuality;shape-rendering:geometricPrecision" d="m-1003.6 342.47 16.74-16.74c-2.61 0.18-11.16 2.97-12.42 4.32-0.80998 0.9-2.34 3.69-3.33 5.04-1.71 2.52-2.07 3.87-1.08 7.47z" class="fil0" fill="#ff0"/>
<path id="path59" style="image-rendering:optimizeQuality;shape-rendering:geometricPrecision" d="m-1417.1 192.59c-4.1252 0.44171-7.4879 2.9617-7.177 8.2495 0.5827 10.119 12.458 3.5749 29.414 18.705 26.743 23.929 15.164 68.907-3.8377 89.683-5.0664 5.5887-10.35 9.8852-17.828 12.757-3.4109 1.3372-6.8228 3.4893-6.2335 8.7179 0.4719 3.857 4.0953 7.072 8.6878 6.5018 5.2286-0.58932 16.479-8.0184 19.186-10.34 5.0944-4.2271 10.191-10.084 14.652-16.737 23.125-34.894 25.04-84.128-13.728-109.05-3.9722-2.5298-17.729-9.0582-23.146-8.3996z" class="fil3" fill="#9b9b00"/>
<path id="path4323" style="image-rendering:optimizeQuality;shape-rendering:geometricPrecision" d="m-1575.3 117.37c3.924 1.347 6.643 4.551 5.1652 9.6377-2.8159 9.7363-12.941 0.71808-32.834 11.704-31.39 17.391-30.091 63.817-16.18 88.295 3.6984 6.5745 7.8953 11.937 14.548 16.399 3.0286 2.0614 5.8772 4.9177 4.1412 9.8848-1.3169 3.6558-5.5639 5.9857-9.915 4.4095-4.9671-1.736-14.287-11.479-16.41-14.344-4.0281-5.2531-7.6963-12.096-10.568-19.574-14.796-39.159-5.7263-87.589 37.608-103.27 4.4348-1.5843 19.298-4.8938 24.434-3.0482z" class="fil3" fill="#9b9b00"/>
</g>
<path id="path4325" style="color-rendering:auto;text-decoration-color:#000000;color:#000000;isolation:auto;mix-blend-mode:normal;shape-rendering:auto;solid-color:#000000;block-progression:tb;text-decoration-line:none;text-decoration-style:solid;image-rendering:auto;white-space:normal;text-indent:0;text-transform:none" d="m-1577.7 172.23a12.186 12.186 0 0 0 -9.8584 18.491s13.501 23.735 24.095 35.984c11.615 13.429 24.548 24.507 37.966 33.168 11.134 7.187 22.982 12.389 35.059 15.255 11.312 2.6845 23.594 4.013 36.012 1.3142 8.6132-1.8721 16.463-6.2159 23.368-10.083 6.9046-3.8665 12.332-7.4171 12.332-7.4171a12.186 12.186 0 1 0 -13.334 -20.398s-4.7937 3.1305-10.904 6.5524c-6.1105 3.4218-14.07 6.9737-16.637 7.5316-7.4244 1.6135-16.081 0.95499-25.211-1.2116-9.1004-2.1596-18.461-6.2036-27.47-12.019-11.453-7.3928-22.655-16.965-32.75-28.636-6.4137-7.4153-21.513-32.383-21.513-32.383a12.186 12.186 0 0 0 -11.155 -6.1512z" fill="#9b9b00"/>
</g>
</g>
</svg>
